<svg xmlns="http://www.w3.org/2000/svg" xmlns:xlink="http://www.w3.org/1999/xlink" width="250" zoomAndPan="magnify" viewBox="0 0 187.5 37.5" height="50" preserveAspectRatio="xMidYMid meet" version="1.0"><defs><g/><clipPath id="838dd95aa5"><path d="M 4.464844 5 L 34.8125 5 L 34.8125 32 L 4.464844 32 Z M 4.464844 5 " clip-rule="nonzero"/></clipPath></defs><g fill="#000000" fill-opacity="1"><g transform="translate(42.643357, 23.373044)"><g><path d="M 1.46875 0 L 1.46875 -15.140625 L 4.234375 -15.140625 L 4.234375 -8.84375 L 11.03125 -8.84375 L 11.03125 -15.140625 L 13.8125 -15.140625 L 13.8125 0 L 11.03125 0 L 11.03125 -6.59375 L 4.234375 -6.59375 L 4.234375 0 Z M 1.46875 0 "/></g></g></g><g fill="#000000" fill-opacity="1"><g transform="translate(57.91754, 23.373044)"><g><path d="M 2.75 4.765625 L 5.234375 -0.71875 L 4.59375 -0.71875 L 0.40625 -10.734375 L 3.421875 -10.734375 L 6.421875 -3.1875 L 9.5625 -10.734375 L 12.515625 -10.734375 L 5.6875 4.765625 Z M 2.75 4.765625 "/></g></g></g><g fill="#000000" fill-opacity="1"><g transform="translate(70.833531, 23.373044)"><g><path d="M 1.40625 4.765625 L 1.40625 -10.734375 L 3.875 -10.734375 L 4.171875 -9.203125 C 4.523438 -9.671875 4.984375 -10.085938 5.546875 -10.453125 C 6.117188 -10.816406 6.859375 -11 7.765625 -11 C 8.773438 -11 9.675781 -10.75 10.46875 -10.25 C 11.269531 -9.757812 11.898438 -9.085938 12.359375 -8.234375 C 12.816406 -7.390625 13.046875 -6.425781 13.046875 -5.34375 C 13.046875 -4.257812 12.816406 -3.296875 12.359375 -2.453125 C 11.898438 -1.609375 11.269531 -0.941406 10.46875 -0.453125 C 9.675781 0.0234375 8.773438 0.265625 7.765625 0.265625 C 6.960938 0.265625 6.253906 0.113281 5.640625 -0.1875 C 5.035156 -0.5 4.546875 -0.925781 4.171875 -1.46875 L 4.171875 4.765625 Z M 7.1875 -2.15625 C 8.0625 -2.15625 8.785156 -2.453125 9.359375 -3.046875 C 9.941406 -3.640625 10.234375 -4.40625 10.234375 -5.34375 C 10.234375 -6.28125 9.941406 -7.050781 9.359375 -7.65625 C 8.785156 -8.257812 8.0625 -8.5625 7.1875 -8.5625 C 6.289062 -8.5625 5.554688 -8.265625 4.984375 -7.671875 C 4.421875 -7.078125 4.140625 -6.304688 4.140625 -5.359375 C 4.140625 -4.421875 4.421875 -3.648438 4.984375 -3.046875 C 5.554688 -2.453125 6.289062 -2.15625 7.1875 -2.15625 Z M 7.1875 -2.15625 "/></g></g></g><g fill="#000000" fill-opacity="1"><g transform="translate(84.939441, 23.373044)"><g><path d="M 6.625 0.265625 C 5.539062 0.265625 4.578125 0.0351562 3.734375 -0.421875 C 2.898438 -0.890625 2.242188 -1.539062 1.765625 -2.375 C 1.296875 -3.21875 1.0625 -4.1875 1.0625 -5.28125 C 1.0625 -6.394531 1.296875 -7.382812 1.765625 -8.25 C 2.234375 -9.113281 2.878906 -9.785156 3.703125 -10.265625 C 4.535156 -10.753906 5.515625 -11 6.640625 -11 C 7.691406 -11 8.617188 -10.765625 9.421875 -10.296875 C 10.234375 -9.835938 10.867188 -9.207031 11.328125 -8.40625 C 11.785156 -7.601562 12.015625 -6.710938 12.015625 -5.734375 C 12.015625 -5.578125 12.007812 -5.410156 12 -5.234375 C 11.988281 -5.066406 11.976562 -4.890625 11.96875 -4.703125 L 3.8125 -4.703125 C 3.863281 -3.859375 4.148438 -3.195312 4.671875 -2.71875 C 5.203125 -2.25 5.84375 -2.015625 6.59375 -2.015625 C 7.15625 -2.015625 7.628906 -2.140625 8.015625 -2.390625 C 8.398438 -2.640625 8.6875 -2.96875 8.875 -3.375 L 11.6875 -3.375 C 11.488281 -2.695312 11.148438 -2.078125 10.671875 -1.515625 C 10.203125 -0.960938 9.625 -0.523438 8.9375 -0.203125 C 8.257812 0.109375 7.488281 0.265625 6.625 0.265625 Z M 6.640625 -8.75 C 5.960938 -8.75 5.363281 -8.554688 4.84375 -8.171875 C 4.320312 -7.785156 3.992188 -7.203125 3.859375 -6.421875 L 9.203125 -6.421875 C 9.148438 -7.128906 8.882812 -7.691406 8.40625 -8.109375 C 7.9375 -8.535156 7.347656 -8.75 6.640625 -8.75 Z M 6.640625 -8.75 "/></g></g></g><g fill="#000000" fill-opacity="1"><g transform="translate(97.877055, 23.373044)"><g><path d="M 1.40625 0 L 1.40625 -10.734375 L 3.875 -10.734375 L 4.140625 -8.71875 C 4.523438 -9.414062 5.050781 -9.96875 5.71875 -10.375 C 6.394531 -10.789062 7.1875 -11 8.09375 -11 L 8.09375 -8.078125 L 7.3125 -8.078125 C 6.707031 -8.078125 6.164062 -7.984375 5.6875 -7.796875 C 5.21875 -7.609375 4.847656 -7.28125 4.578125 -6.8125 C 4.304688 -6.351562 4.171875 -5.710938 4.171875 -4.890625 L 4.171875 0 Z M 1.40625 0 "/></g></g></g><g fill="#000000" fill-opacity="1"><g transform="translate(106.444452, 23.373044)"><g><path d="M 6.640625 0.265625 C 5.535156 0.265625 4.554688 0.0703125 3.703125 -0.3125 C 2.847656 -0.695312 2.175781 -1.242188 1.6875 -1.953125 C 1.195312 -2.671875 0.945312 -3.539062 0.9375 -4.5625 L 3.859375 -4.5625 C 3.878906 -3.851562 4.128906 -3.257812 4.609375 -2.78125 C 5.097656 -2.300781 5.769531 -2.0625 6.625 -2.0625 C 7.351562 -2.0625 7.9375 -2.234375 8.375 -2.578125 C 8.8125 -2.929688 9.03125 -3.40625 9.03125 -4 C 9.03125 -4.625 8.835938 -5.109375 8.453125 -5.453125 C 8.066406 -5.796875 7.554688 -6.078125 6.921875 -6.296875 C 6.285156 -6.515625 5.609375 -6.742188 4.890625 -6.984375 C 3.722656 -7.390625 2.832031 -7.910156 2.21875 -8.546875 C 1.601562 -9.179688 1.296875 -10.023438 1.296875 -11.078125 C 1.285156 -11.972656 1.5 -12.738281 1.9375 -13.375 C 2.375 -14.019531 2.972656 -14.519531 3.734375 -14.875 C 4.503906 -15.226562 5.390625 -15.40625 6.390625 -15.40625 C 7.398438 -15.40625 8.289062 -15.222656 9.0625 -14.859375 C 9.832031 -14.503906 10.4375 -14 10.875 -13.34375 C 11.3125 -12.695312 11.546875 -11.925781 11.578125 -11.03125 L 8.609375 -11.03125 C 8.597656 -11.570312 8.394531 -12.046875 8 -12.453125 C 7.601562 -12.867188 7.050781 -13.078125 6.34375 -13.078125 C 5.738281 -13.085938 5.226562 -12.9375 4.8125 -12.625 C 4.40625 -12.3125 4.203125 -11.863281 4.203125 -11.28125 C 4.203125 -10.769531 4.359375 -10.363281 4.671875 -10.0625 C 4.992188 -9.769531 5.425781 -9.523438 5.96875 -9.328125 C 6.519531 -9.128906 7.148438 -8.910156 7.859375 -8.671875 C 8.609375 -8.410156 9.289062 -8.109375 9.90625 -7.765625 C 10.53125 -7.421875 11.03125 -6.960938 11.40625 -6.390625 C 11.78125 -5.828125 11.96875 -5.097656 11.96875 -4.203125 C 11.96875 -3.410156 11.765625 -2.671875 11.359375 -1.984375 C 10.953125 -1.304688 10.351562 -0.757812 9.5625 -0.34375 C 8.769531 0.0625 7.796875 0.265625 6.640625 0.265625 Z M 6.640625 0.265625 "/></g></g></g><g fill="#000000" fill-opacity="1"><g transform="translate(119.360443, 23.373044)"><g><path d="M 6.671875 0.265625 C 5.566406 0.265625 4.597656 0.0234375 3.765625 -0.453125 C 2.929688 -0.929688 2.269531 -1.59375 1.78125 -2.4375 C 1.300781 -3.289062 1.0625 -4.265625 1.0625 -5.359375 C 1.0625 -6.460938 1.300781 -7.4375 1.78125 -8.28125 C 2.269531 -9.132812 2.929688 -9.800781 3.765625 -10.28125 C 4.597656 -10.757812 5.566406 -11 6.671875 -11 C 8.035156 -11 9.1875 -10.640625 10.125 -9.921875 C 11.0625 -9.203125 11.660156 -8.21875 11.921875 -6.96875 L 9 -6.96875 C 8.851562 -7.488281 8.566406 -7.894531 8.140625 -8.1875 C 7.722656 -8.488281 7.222656 -8.640625 6.640625 -8.640625 C 5.878906 -8.640625 5.226562 -8.347656 4.6875 -7.765625 C 4.15625 -7.191406 3.890625 -6.390625 3.890625 -5.359375 C 3.890625 -4.335938 4.15625 -3.535156 4.6875 -2.953125 C 5.226562 -2.378906 5.878906 -2.09375 6.640625 -2.09375 C 7.222656 -2.09375 7.722656 -2.238281 8.140625 -2.53125 C 8.566406 -2.820312 8.851562 -3.234375 9 -3.765625 L 11.921875 -3.765625 C 11.660156 -2.554688 11.0625 -1.582031 10.125 -0.84375 C 9.1875 -0.101562 8.035156 0.265625 6.671875 0.265625 Z M 6.671875 0.265625 "/></g></g></g><g fill="#000000" fill-opacity="1"><g transform="translate(132.341327, 23.373044)"><g><path d="M 1.40625 0 L 1.40625 -10.734375 L 3.875 -10.734375 L 4.140625 -8.71875 C 4.523438 -9.414062 5.050781 -9.96875 5.71875 -10.375 C 6.394531 -10.789062 7.1875 -11 8.09375 -11 L 8.09375 -8.078125 L 7.3125 -8.078125 C 6.707031 -8.078125 6.164062 -7.984375 5.6875 -7.796875 C 5.21875 -7.609375 4.847656 -7.28125 4.578125 -6.8125 C 4.304688 -6.351562 4.171875 -5.710938 4.171875 -4.890625 L 4.171875 0 Z M 1.40625 0 "/></g></g></g><g fill="#000000" fill-opacity="1"><g transform="translate(140.908725, 23.373044)"><g><path d="M 2.90625 -12.40625 C 2.394531 -12.40625 1.976562 -12.554688 1.65625 -12.859375 C 1.332031 -13.160156 1.171875 -13.539062 1.171875 -14 C 1.171875 -14.457031 1.332031 -14.832031 1.65625 -15.125 C 1.976562 -15.425781 2.394531 -15.578125 2.90625 -15.578125 C 3.40625 -15.578125 3.816406 -15.425781 4.140625 -15.125 C 4.460938 -14.832031 4.625 -14.457031 4.625 -14 C 4.625 -13.539062 4.460938 -13.160156 4.140625 -12.859375 C 3.816406 -12.554688 3.40625 -12.40625 2.90625 -12.40625 Z M 1.515625 0 L 1.515625 -10.734375 L 4.28125 -10.734375 L 4.28125 0 Z M 1.515625 0 "/></g></g></g><g fill="#000000" fill-opacity="1"><g transform="translate(146.685217, 23.373044)"><g><path d="M 7.765625 0.265625 C 6.960938 0.265625 6.253906 0.113281 5.640625 -0.1875 C 5.035156 -0.5 4.546875 -0.925781 4.171875 -1.46875 L 3.875 0 L 1.40625 0 L 1.40625 -15.578125 L 4.171875 -15.578125 L 4.171875 -9.203125 C 4.523438 -9.671875 4.984375 -10.085938 5.546875 -10.453125 C 6.117188 -10.816406 6.859375 -11 7.765625 -11 C 8.773438 -11 9.675781 -10.75 10.46875 -10.25 C 11.269531 -9.757812 11.898438 -9.085938 12.359375 -8.234375 C 12.816406 -7.390625 13.046875 -6.425781 13.046875 -5.34375 C 13.046875 -4.257812 12.816406 -3.296875 12.359375 -2.453125 C 11.898438 -1.609375 11.269531 -0.941406 10.46875 -0.453125 C 9.675781 0.0234375 8.773438 0.265625 7.765625 0.265625 Z M 7.1875 -2.15625 C 8.0625 -2.15625 8.785156 -2.453125 9.359375 -3.046875 C 9.941406 -3.640625 10.234375 -4.40625 10.234375 -5.34375 C 10.234375 -6.28125 9.941406 -7.050781 9.359375 -7.65625 C 8.785156 -8.257812 8.0625 -8.5625 7.1875 -8.5625 C 6.289062 -8.5625 5.554688 -8.265625 4.984375 -7.671875 C 4.421875 -7.078125 4.140625 -6.304688 4.140625 -5.359375 C 4.140625 -4.421875 4.421875 -3.648438 4.984375 -3.046875 C 5.554688 -2.453125 6.289062 -2.15625 7.1875 -2.15625 Z M 7.1875 -2.15625 "/></g></g></g><g fill="#000000" fill-opacity="1"><g transform="translate(160.791128, 23.373044)"><g><path d="M 6.625 0.265625 C 5.539062 0.265625 4.578125 0.0351562 3.734375 -0.421875 C 2.898438 -0.890625 2.242188 -1.539062 1.765625 -2.375 C 1.296875 -3.21875 1.0625 -4.1875 1.0625 -5.28125 C 1.0625 -6.394531 1.296875 -7.382812 1.765625 -8.25 C 2.234375 -9.113281 2.878906 -9.785156 3.703125 -10.265625 C 4.535156 -10.753906 5.515625 -11 6.640625 -11 C 7.691406 -11 8.617188 -10.765625 9.421875 -10.296875 C 10.234375 -9.835938 10.867188 -9.207031 11.328125 -8.40625 C 11.785156 -7.601562 12.015625 -6.710938 12.015625 -5.734375 C 12.015625 -5.578125 12.007812 -5.410156 12 -5.234375 C 11.988281 -5.066406 11.976562 -4.890625 11.96875 -4.703125 L 3.8125 -4.703125 C 3.863281 -3.859375 4.148438 -3.195312 4.671875 -2.71875 C 5.203125 -2.25 5.84375 -2.015625 6.59375 -2.015625 C 7.15625 -2.015625 7.628906 -2.140625 8.015625 -2.390625 C 8.398438 -2.640625 8.6875 -2.96875 8.875 -3.375 L 11.6875 -3.375 C 11.488281 -2.695312 11.148438 -2.078125 10.671875 -1.515625 C 10.203125 -0.960938 9.625 -0.523438 8.9375 -0.203125 C 8.257812 0.109375 7.488281 0.265625 6.625 0.265625 Z M 6.640625 -8.75 C 5.960938 -8.75 5.363281 -8.554688 4.84375 -8.171875 C 4.320312 -7.785156 3.992188 -7.203125 3.859375 -6.421875 L 9.203125 -6.421875 C 9.148438 -7.128906 8.882812 -7.691406 8.40625 -8.109375 C 7.9375 -8.535156 7.347656 -8.75 6.640625 -8.75 Z M 6.640625 -8.75 "/></g></g></g><g fill="#000000" fill-opacity="1"><g transform="translate(173.728742, 23.373044)"><g><path d="M 1.40625 0 L 1.40625 -10.734375 L 3.875 -10.734375 L 4.140625 -8.71875 C 4.523438 -9.414062 5.050781 -9.96875 5.71875 -10.375 C 6.394531 -10.789062 7.1875 -11 8.09375 -11 L 8.09375 -8.078125 L 7.3125 -8.078125 C 6.707031 -8.078125 6.164062 -7.984375 5.6875 -7.796875 C 5.21875 -7.609375 4.847656 -7.28125 4.578125 -6.8125 C 4.304688 -6.351562 4.171875 -5.710938 4.171875 -4.890625 L 4.171875 0 Z M 1.40625 0 "/></g></g></g><g clip-path="url(#838dd95aa5)"><path fill="#286beb" d="M 32.59375 12.605469 C 32.507812 12.148438 32.359375 11.71875 32.140625 11.3125 C 31.921875 10.902344 31.648438 10.539062 31.316406 10.21875 C 30.984375 9.898438 30.613281 9.632812 30.199219 9.429688 C 29.785156 9.222656 29.347656 9.085938 28.890625 9.015625 C 28.6875 8.6875 28.433594 8.402344 28.132812 8.15625 C 27.832031 7.910156 27.496094 7.722656 27.132812 7.589844 C 26.769531 7.457031 26.394531 7.382812 26.003906 7.375 C 25.617188 7.367188 25.238281 7.421875 24.871094 7.539062 C 24.222656 6.605469 23.335938 6.046875 22.214844 5.867188 C 21.320312 5.777344 20.496094 5.984375 19.75 6.484375 C 19.433594 6.214844 19.082031 6.011719 18.695312 5.871094 C 18.304688 5.730469 17.90625 5.664062 17.492188 5.667969 C 17.078125 5.671875 16.679688 5.75 16.292969 5.902344 C 15.910156 6.050781 15.5625 6.265625 15.253906 6.539062 C 14.867188 6.457031 14.472656 6.429688 14.074219 6.460938 C 13.675781 6.492188 13.292969 6.578125 12.921875 6.722656 C 12.550781 6.867188 12.207031 7.0625 11.894531 7.308594 C 11.578125 7.554688 11.308594 7.839844 11.078125 8.164062 C 9.878906 8.183594 8.863281 8.621094 8.027344 9.484375 C 7.386719 10.230469 7.042969 11.09375 6.996094 12.074219 C 6.488281 12.21875 6.039062 12.464844 5.644531 12.8125 C 5.25 13.160156 4.949219 13.578125 4.746094 14.058594 C 4.4375 15.101562 4.546875 16.09375 5.078125 17.042969 C 4.617188 18.246094 4.609375 19.453125 5.058594 20.664062 C 5.546875 21.703125 6.332031 22.414062 7.414062 22.796875 C 7.457031 23.476562 7.578125 24.140625 7.785156 24.789062 C 8.625 27.515625 11.324219 28.207031 13.09375 28.207031 L 13.140625 28.207031 L 12.832031 30.605469 C 12.8125 30.746094 12.847656 30.875 12.933594 30.988281 C 13.019531 31.097656 13.136719 31.164062 13.277344 31.183594 C 13.300781 31.183594 13.320312 31.183594 13.34375 31.183594 C 13.472656 31.183594 13.589844 31.140625 13.6875 31.054688 C 13.785156 30.96875 13.84375 30.863281 13.859375 30.734375 L 14.246094 27.71875 C 14.265625 27.550781 14.214844 27.410156 14.097656 27.289062 C 13.980469 27.167969 13.839844 27.117188 13.671875 27.140625 C 13.511719 27.15625 9.71875 27.550781 8.769531 24.484375 C 7.878906 21.59375 8.792969 19.238281 11.210938 18.175781 C 11.347656 18.125 11.441406 18.027344 11.496094 17.894531 C 11.550781 17.761719 11.550781 17.625 11.492188 17.492188 C 11.433594 17.359375 11.335938 17.265625 11.199219 17.214844 C 11.066406 17.164062 10.929688 17.171875 10.800781 17.234375 C 10.347656 17.421875 9.925781 17.664062 9.539062 17.964844 C 9.152344 18.265625 8.808594 18.613281 8.515625 19.003906 C 8.21875 19.398438 7.984375 19.820312 7.800781 20.277344 C 7.621094 20.730469 7.5 21.203125 7.445312 21.691406 C 6.796875 21.386719 6.316406 20.910156 6.011719 20.257812 C 5.664062 19.230469 5.699219 18.214844 6.117188 17.210938 C 6.1875 17.042969 6.175781 16.882812 6.082031 16.726562 C 5.636719 16.007812 5.511719 15.234375 5.710938 14.414062 C 5.902344 14.027344 6.171875 13.707031 6.515625 13.445312 C 6.855469 13.1875 7.242188 13.019531 7.664062 12.9375 C 7.777344 12.90625 7.871094 12.835938 7.9375 12.738281 C 8.003906 12.640625 8.035156 12.53125 8.027344 12.410156 C 8.003906 11.566406 8.261719 10.820312 8.796875 10.167969 C 9.515625 9.464844 10.375 9.136719 11.375 9.175781 C 11.558594 9.167969 11.699219 9.089844 11.796875 8.933594 C 11.972656 8.648438 12.1875 8.402344 12.441406 8.1875 C 12.695312 7.972656 12.980469 7.804688 13.289062 7.683594 C 13.597656 7.5625 13.917969 7.492188 14.25 7.472656 C 14.582031 7.457031 14.910156 7.492188 15.230469 7.578125 C 17.300781 8.242188 16.875 10.59375 16.855469 10.695312 C 16.824219 10.832031 16.851562 10.964844 16.929688 11.082031 C 17.007812 11.199219 17.117188 11.273438 17.257812 11.304688 C 17.394531 11.332031 17.527344 11.304688 17.644531 11.226562 C 17.761719 11.148438 17.835938 11.039062 17.867188 10.898438 C 17.945312 10.535156 17.976562 10.167969 17.949219 9.796875 C 17.921875 9.425781 17.839844 9.0625 17.707031 8.714844 C 17.574219 8.367188 17.394531 8.042969 17.164062 7.75 C 16.9375 7.453125 16.671875 7.199219 16.367188 6.980469 C 16.613281 6.859375 16.871094 6.777344 17.140625 6.734375 C 17.410156 6.695312 17.679688 6.699219 17.949219 6.746094 C 18.21875 6.792969 18.472656 6.882812 18.714844 7.011719 C 18.957031 7.140625 19.171875 7.304688 19.359375 7.503906 C 19.453125 7.597656 19.570312 7.648438 19.703125 7.652344 C 19.839844 7.65625 19.957031 7.613281 20.058594 7.527344 C 20.65625 7.042969 21.335938 6.828125 22.101562 6.886719 C 23.050781 7.082031 23.769531 7.601562 24.25 8.445312 C 24.320312 8.542969 24.414062 8.609375 24.527344 8.644531 C 24.644531 8.679688 24.757812 8.675781 24.871094 8.628906 C 25.164062 8.503906 25.46875 8.4375 25.785156 8.425781 C 26.101562 8.414062 26.410156 8.460938 26.710938 8.566406 C 27.007812 8.667969 27.28125 8.820312 27.523438 9.023438 C 27.769531 9.226562 27.96875 9.464844 28.121094 9.742188 C 28.210938 9.90625 28.347656 9.996094 28.53125 10.011719 C 28.917969 10.046875 29.289062 10.144531 29.644531 10.304688 C 29.996094 10.46875 30.316406 10.683594 30.597656 10.953125 C 30.878906 11.222656 31.105469 11.53125 31.28125 11.878906 C 31.457031 12.226562 31.574219 12.59375 31.625 12.980469 C 31.734375 13.40625 31.734375 13.835938 31.628906 14.265625 C 31.523438 14.695312 31.320312 15.074219 31.023438 15.402344 C 30.703125 15.621094 30.351562 15.753906 29.96875 15.804688 C 29.582031 15.851562 29.207031 15.8125 28.84375 15.683594 C 28.78125 15.445312 28.671875 15.238281 28.507812 15.054688 C 28.347656 14.871094 28.15625 14.734375 27.929688 14.644531 C 27.703125 14.554688 27.46875 14.519531 27.226562 14.539062 C 26.984375 14.558594 26.761719 14.632812 26.550781 14.757812 C 26.34375 14.886719 26.175781 15.054688 26.050781 15.261719 C 25.921875 15.46875 25.84375 15.691406 25.824219 15.933594 C 25.800781 16.175781 25.835938 16.410156 25.925781 16.636719 C 26.015625 16.863281 26.152344 17.058594 26.332031 17.21875 C 26.515625 17.382812 26.722656 17.492188 26.957031 17.554688 C 27.191406 17.621094 27.429688 17.625 27.667969 17.578125 C 27.90625 17.527344 28.121094 17.425781 28.3125 17.277344 C 28.5 17.125 28.648438 16.9375 28.75 16.71875 C 29.074219 16.796875 29.398438 16.839844 29.730469 16.84375 C 30.109375 16.867188 30.476562 16.8125 30.832031 16.683594 C 31.1875 16.554688 31.503906 16.363281 31.78125 16.105469 C 32.058594 15.847656 32.273438 15.546875 32.429688 15.203125 C 32.582031 14.855469 32.664062 14.496094 32.671875 14.117188 C 33.386719 15.28125 33.617188 16.53125 33.359375 17.871094 C 33.195312 19.050781 32.640625 20 31.6875 20.71875 C 31.277344 21.007812 30.828125 21.09375 30.335938 20.976562 C 29.238281 20.757812 28.164062 20.855469 27.121094 21.269531 C 27.109375 20.828125 27.03125 20.398438 26.894531 19.980469 C 26.753906 19.5625 26.558594 19.175781 26.304688 18.816406 C 26.050781 18.453125 25.75 18.140625 25.402344 17.867188 C 25.058594 17.59375 24.679688 17.378906 24.269531 17.21875 C 24.132812 17.175781 24.003906 17.183594 23.875 17.246094 C 23.75 17.308594 23.664062 17.410156 23.617188 17.542969 C 23.574219 17.675781 23.582031 17.804688 23.640625 17.933594 C 23.703125 18.0625 23.800781 18.148438 23.933594 18.195312 C 24.335938 18.351562 24.695312 18.574219 25.011719 18.863281 C 25.328125 19.152344 25.582031 19.492188 25.773438 19.875 C 25.964844 20.261719 26.082031 20.667969 26.121094 21.097656 C 26.160156 21.523438 26.121094 21.945312 26.003906 22.359375 C 25.589844 24.449219 24.019531 24.675781 21.664062 24.789062 C 20.878906 24.789062 20.101562 24.886719 19.339844 25.078125 C 16.847656 25.847656 15.6875 29.398438 15.742188 31.167969 C 15.746094 31.304688 15.796875 31.425781 15.898438 31.523438 C 15.996094 31.621094 16.117188 31.667969 16.257812 31.667969 L 16.273438 31.667969 C 16.414062 31.664062 16.535156 31.609375 16.632812 31.507812 C 16.730469 31.402344 16.777344 31.28125 16.773438 31.136719 C 16.730469 29.730469 17.707031 26.660156 19.644531 26.0625 C 20.324219 25.898438 21.015625 25.820312 21.714844 25.820312 C 23.808594 25.714844 26.417969 25.597656 27.015625 22.558594 C 27.023438 22.507812 27.027344 22.460938 27.035156 22.414062 C 28.003906 21.941406 29.023438 21.796875 30.085938 21.976562 C 30.867188 22.167969 31.589844 22.039062 32.253906 21.585938 C 32.828125 21.164062 33.300781 20.644531 33.667969 20.035156 C 34.035156 19.421875 34.273438 18.761719 34.375 18.054688 C 34.769531 15.832031 33.988281 13.515625 32.59375 12.605469 Z M 27.363281 16.574219 C 27.222656 16.574219 27.101562 16.523438 27.003906 16.425781 C 26.902344 16.324219 26.851562 16.207031 26.851562 16.066406 C 26.851562 15.925781 26.902344 15.804688 27 15.707031 C 27.101562 15.605469 27.21875 15.554688 27.359375 15.554688 C 27.5 15.554688 27.621094 15.605469 27.71875 15.703125 C 27.820312 15.804688 27.871094 15.925781 27.871094 16.066406 C 27.871094 16.203125 27.820312 16.324219 27.722656 16.421875 C 27.621094 16.523438 27.503906 16.574219 27.363281 16.574219 Z M 27.363281 16.574219 " fill-opacity="1" fill-rule="nonzero"/></g><path fill="#286beb" d="M 10.800781 22.242188 C 10.742188 22.113281 10.648438 22.023438 10.511719 21.972656 C 10.378906 21.921875 10.25 21.929688 10.117188 21.988281 C 9.988281 22.046875 9.898438 22.140625 9.847656 22.273438 C 9.800781 22.40625 9.804688 22.539062 9.863281 22.667969 C 10.226562 23.355469 10.742188 23.890625 11.410156 24.285156 C 12.078125 24.675781 12.800781 24.863281 13.574219 24.847656 C 14.46875 24.824219 15.324219 24.636719 16.144531 24.285156 C 16.308594 24.460938 16.503906 24.589844 16.726562 24.671875 C 16.953125 24.757812 17.183594 24.789062 17.421875 24.761719 C 17.660156 24.738281 17.882812 24.660156 18.082031 24.535156 C 18.285156 24.40625 18.449219 24.238281 18.574219 24.035156 C 18.699219 23.828125 18.769531 23.605469 18.792969 23.367188 C 18.8125 23.128906 18.777344 22.898438 18.6875 22.675781 C 18.601562 22.449219 18.46875 22.257812 18.289062 22.097656 C 18.109375 21.9375 17.90625 21.824219 17.675781 21.761719 C 17.445312 21.699219 17.210938 21.6875 16.976562 21.734375 C 16.738281 21.777344 16.527344 21.875 16.335938 22.019531 C 16.144531 22.164062 15.996094 22.34375 15.890625 22.558594 C 15.785156 22.773438 15.730469 23.003906 15.730469 23.242188 C 15.730469 23.273438 15.738281 23.304688 15.742188 23.335938 C 12.058594 24.800781 10.851562 22.355469 10.800781 22.242188 Z M 17.273438 22.734375 C 17.414062 22.734375 17.535156 22.785156 17.632812 22.882812 C 17.734375 22.984375 17.78125 23.105469 17.78125 23.246094 C 17.78125 23.382812 17.734375 23.503906 17.632812 23.605469 C 17.535156 23.703125 17.414062 23.753906 17.273438 23.753906 C 17.132812 23.753906 17.011719 23.703125 16.914062 23.601562 C 16.816406 23.503906 16.765625 23.382812 16.765625 23.242188 C 16.765625 23.101562 16.816406 22.984375 16.914062 22.882812 C 17.015625 22.785156 17.132812 22.734375 17.273438 22.734375 Z M 17.273438 22.734375 " fill-opacity="1" fill-rule="nonzero"/><path fill="#286beb" d="M 12.242188 14.640625 C 12.226562 14.496094 12.167969 14.378906 12.058594 14.289062 C 11.945312 14.199219 11.820312 14.160156 11.679688 14.171875 C 11.535156 14.183594 11.417969 14.246094 11.328125 14.355469 C 11.234375 14.464844 11.195312 14.589844 11.210938 14.734375 C 11.359375 15.785156 11.847656 16.644531 12.675781 17.308594 C 13.65625 18.03125 14.753906 18.367188 15.976562 18.3125 C 16.414062 18.3125 16.847656 18.28125 17.28125 18.21875 C 17.632812 18.199219 17.976562 18.144531 18.320312 18.058594 C 18.660156 17.96875 18.988281 17.847656 19.304688 17.695312 C 19.617188 17.539062 19.917969 17.355469 20.195312 17.144531 C 20.476562 16.929688 20.730469 16.691406 20.964844 16.429688 C 21.195312 16.164062 21.398438 15.878906 21.574219 15.574219 C 21.75 15.269531 21.894531 14.953125 22.003906 14.617188 C 22.117188 14.285156 22.195312 13.945312 22.238281 13.59375 C 22.28125 13.246094 22.292969 12.898438 22.265625 12.546875 C 22.488281 12.445312 22.679688 12.300781 22.832031 12.109375 C 22.988281 11.917969 23.089844 11.703125 23.140625 11.460938 C 23.191406 11.222656 23.1875 10.984375 23.125 10.746094 C 23.0625 10.507812 22.953125 10.296875 22.789062 10.113281 C 22.625 9.929688 22.429688 9.792969 22.203125 9.699219 C 21.976562 9.609375 21.738281 9.574219 21.496094 9.59375 C 21.25 9.617188 21.023438 9.691406 20.816406 9.820312 C 20.605469 9.949219 20.4375 10.121094 20.308594 10.328125 C 20.179688 10.539062 20.105469 10.765625 20.085938 11.007812 C 20.066406 11.253906 20.101562 11.488281 20.195312 11.71875 C 20.285156 11.945312 20.425781 12.140625 20.609375 12.300781 C 20.792969 12.460938 21.003906 12.574219 21.242188 12.636719 C 21.277344 13.589844 21.074219 16.65625 17.140625 17.199219 C 16.484375 17.347656 15.828125 17.363281 15.167969 17.242188 C 14.507812 17.121094 13.898438 16.878906 13.335938 16.511719 C 12.730469 16.027344 12.367188 15.402344 12.242188 14.640625 Z M 21.625 10.640625 C 21.765625 10.640625 21.886719 10.6875 21.988281 10.789062 C 22.085938 10.886719 22.136719 11.007812 22.136719 11.148438 C 22.136719 11.289062 22.085938 11.410156 21.984375 11.507812 C 21.886719 11.605469 21.765625 11.65625 21.625 11.65625 C 21.484375 11.65625 21.367188 11.605469 21.265625 11.507812 C 21.167969 11.40625 21.117188 11.289062 21.117188 11.148438 C 21.117188 11.007812 21.167969 10.886719 21.269531 10.785156 C 21.367188 10.6875 21.488281 10.636719 21.628906 10.640625 Z M 21.625 10.640625 " fill-opacity="1" fill-rule="nonzero"/><path fill="#286beb" d="M 28.257812 13.941406 C 28.671875 13.9375 29.070312 13.867188 29.460938 13.734375 C 29.597656 13.691406 29.703125 13.605469 29.769531 13.476562 C 29.839844 13.347656 29.847656 13.214844 29.800781 13.074219 C 29.753906 12.9375 29.664062 12.835938 29.535156 12.773438 C 29.402344 12.710938 29.265625 12.703125 29.128906 12.757812 C 26.839844 13.527344 25.421875 11.089844 25.363281 10.984375 C 25.292969 10.859375 25.1875 10.78125 25.050781 10.742188 C 24.914062 10.707031 24.785156 10.722656 24.664062 10.792969 C 24.539062 10.863281 24.457031 10.964844 24.421875 11.101562 C 24.382812 11.238281 24.398438 11.367188 24.464844 11.492188 C 24.847656 12.195312 25.375 12.765625 26.050781 13.199219 C 26.722656 13.636719 27.460938 13.882812 28.257812 13.941406 Z M 28.257812 13.941406 " fill-opacity="1" fill-rule="nonzero"/><path fill="#286beb" d="M 13.800781 9.945312 C 13.660156 9.925781 13.53125 9.960938 13.417969 10.046875 C 13.308594 10.132812 13.242188 10.246094 13.222656 10.390625 C 13.171875 10.75 13.183594 11.109375 13.257812 11.46875 C 13.332031 11.824219 13.46875 12.160156 13.65625 12.46875 C 13.847656 12.78125 14.085938 13.050781 14.371094 13.277344 C 14.65625 13.507812 14.972656 13.679688 15.316406 13.796875 C 15.339844 14.039062 15.414062 14.261719 15.542969 14.46875 C 15.671875 14.671875 15.839844 14.835938 16.046875 14.960938 C 16.253906 15.085938 16.480469 15.160156 16.722656 15.179688 C 16.960938 15.195312 17.195312 15.160156 17.417969 15.070312 C 17.644531 14.976562 17.835938 14.839844 17.992188 14.65625 C 18.152344 14.472656 18.261719 14.265625 18.320312 14.03125 C 18.382812 13.796875 18.386719 13.5625 18.332031 13.324219 C 18.28125 13.089844 18.179688 12.875 18.027344 12.6875 C 17.875 12.5 17.6875 12.355469 17.464844 12.257812 C 17.246094 12.160156 17.015625 12.113281 16.773438 12.125 C 16.53125 12.136719 16.304688 12.199219 16.09375 12.316406 C 15.882812 12.4375 15.707031 12.59375 15.574219 12.796875 C 15.351562 12.707031 15.152344 12.585938 14.972656 12.429688 C 14.792969 12.273438 14.640625 12.09375 14.519531 11.886719 C 14.402344 11.683594 14.316406 11.464844 14.269531 11.230469 C 14.222656 10.996094 14.214844 10.761719 14.246094 10.527344 C 14.265625 10.386719 14.230469 10.257812 14.144531 10.144531 C 14.058594 10.03125 13.941406 9.964844 13.800781 9.945312 Z M 16.84375 13.15625 C 16.984375 13.15625 17.101562 13.203125 17.203125 13.304688 C 17.300781 13.402344 17.351562 13.523438 17.351562 13.664062 C 17.351562 13.804688 17.300781 13.921875 17.203125 14.023438 C 17.105469 14.121094 16.984375 14.171875 16.84375 14.171875 C 16.703125 14.171875 16.582031 14.121094 16.484375 14.023438 C 16.382812 13.921875 16.335938 13.804688 16.335938 13.664062 C 16.335938 13.523438 16.386719 13.402344 16.484375 13.304688 C 16.582031 13.207031 16.703125 13.15625 16.84375 13.15625 Z M 16.84375 13.15625 " fill-opacity="1" fill-rule="nonzero"/><path fill="#286beb" d="M 22.9375 21.703125 C 23.140625 21.703125 23.339844 21.664062 23.527344 21.585938 C 23.714844 21.507812 23.882812 21.394531 24.027344 21.25 C 24.171875 21.109375 24.28125 20.941406 24.359375 20.753906 C 24.4375 20.5625 24.476562 20.367188 24.476562 20.164062 C 24.476562 19.957031 24.4375 19.761719 24.359375 19.574219 C 24.28125 19.386719 24.171875 19.21875 24.027344 19.074219 C 23.882812 18.929688 23.714844 18.820312 23.527344 18.742188 C 23.339844 18.664062 23.140625 18.625 22.9375 18.625 C 22.472656 18.625 22.089844 18.800781 21.785156 19.148438 C 21.472656 19 21.140625 18.910156 20.792969 18.875 C 20.449219 18.84375 20.105469 18.871094 19.769531 18.957031 C 19.429688 19.042969 19.117188 19.183594 18.832031 19.382812 C 18.542969 19.578125 18.296875 19.816406 18.09375 20.101562 C 18.011719 20.214844 17.980469 20.34375 18.003906 20.484375 C 18.027344 20.625 18.097656 20.738281 18.214844 20.820312 C 18.332031 20.902344 18.457031 20.933594 18.597656 20.910156 C 18.738281 20.886719 18.851562 20.816406 18.933594 20.699219 C 19.070312 20.511719 19.238281 20.355469 19.429688 20.226562 C 19.625 20.097656 19.832031 20.003906 20.058594 19.949219 C 20.285156 19.894531 20.515625 19.882812 20.746094 19.910156 C 20.976562 19.9375 21.195312 20.003906 21.402344 20.109375 C 21.402344 20.128906 21.398438 20.144531 21.398438 20.160156 C 21.398438 20.367188 21.4375 20.5625 21.515625 20.75 C 21.59375 20.9375 21.707031 21.105469 21.851562 21.25 C 21.996094 21.394531 22.160156 21.503906 22.347656 21.582031 C 22.539062 21.664062 22.734375 21.703125 22.9375 21.703125 Z M 22.9375 19.65625 C 23.078125 19.65625 23.199219 19.703125 23.296875 19.804688 C 23.398438 19.902344 23.445312 20.023438 23.445312 20.164062 C 23.445312 20.304688 23.394531 20.421875 23.296875 20.523438 C 23.199219 20.621094 23.078125 20.671875 22.9375 20.671875 C 22.796875 20.671875 22.675781 20.621094 22.578125 20.523438 C 22.476562 20.421875 22.429688 20.300781 22.429688 20.160156 C 22.429688 20.023438 22.480469 19.902344 22.578125 19.804688 C 22.679688 19.703125 22.796875 19.65625 22.9375 19.65625 Z M 22.9375 19.65625 " fill-opacity="1" fill-rule="nonzero"/></svg>